<svg width="28" height="28" viewBox="0 0 28 28" fill="none" xmlns="http://www.w3.org/2000/svg">
<path d="M9.33504 19.0931L6.42497 20.8084C6.14918 21.733 6.99225 22.4627 7.89926 22.7992L9.33504 19.0931Z" fill="#003B76"/>
<path d="M11.2112 11.6961C11.276 11.479 11.4317 11.3006 11.6381 11.2071L20.7624 7.0744C21.3734 6.79764 22.0265 7.36783 21.8348 8.01063L18.4231 19.4483C18.3466 19.705 18.144 19.9047 17.8862 19.9775L7.89931 22.7992L11.2112 11.6961Z" fill="url(#paint0_linear_264_2)"/>
<path d="M9.74268 9.68572C9.79963 9.4948 9.92728 9.33281 10.0996 9.23278L18.5192 4.34479C19.132 3.98906 19.8642 4.56601 19.6617 5.24496L16.4411 16.0418C16.3761 16.26 16.2192 16.4389 16.0115 16.5321L6.4175 20.8334L9.74268 9.68572Z" fill="url(#paint1_linear_264_2)"/>
<path d="M10.5 11L17 7.5" stroke="url(#paint2_linear_264_2)" stroke-linecap="round"/>
<defs>
<linearGradient id="paint0_linear_264_2" x1="22" y1="8" x2="8" y2="24" gradientUnits="userSpaceOnUse">
<stop stop-color="#0079EE"/>
<stop offset="1" stop-color="#004E99"/>
</linearGradient>
<linearGradient id="paint1_linear_264_2" x1="19" y1="4" x2="6" y2="21" gradientUnits="userSpaceOnUse">
<stop stop-color="#73BAFF"/>
<stop offset="1" stop-color="#0082FF"/>
</linearGradient>
<linearGradient id="paint2_linear_264_2" x1="17" y1="7.5" x2="10" y2="11" gradientUnits="userSpaceOnUse">
<stop stop-color="white"/>
<stop offset="1" stop-color="white" stop-opacity="0.3"/>
</linearGradient>
</defs>
</svg>
